<mxfile host="app.diagrams.net" modified="2024-04-08T13:49:36.342Z" agent="Mozilla/5.0 (Macintosh; Intel Mac OS X 10_15_7) AppleWebKit/537.36 (KHTML, like Gecko) Chrome/123.0.0.0 Safari/537.36" version="24.2.1" etag="rruo-lnHYbI0Se7CM9Ss" type="github">
  <diagram name="Page-1" id="8lwFJtJcAoxStpcX5G1j">
    <mxGraphModel>
      <root>
        <mxCell id="0" />
        <mxCell id="1" parent="0" />
      </root>
    </mxGraphModel>
  </diagram>
</mxfile>
